<?xml version="1.0" encoding="UTF-8" standalone="no"?>
<!-- Created with Inkscape (http://www.inkscape.org/) -->

<svg
   xmlns:dc="http://purl.org/dc/elements/1.1/"
   xmlns:cc="http://creativecommons.org/ns#"
   xmlns:rdf="http://www.w3.org/1999/02/22-rdf-syntax-ns#"
   xmlns:svg="http://www.w3.org/2000/svg"
   xmlns="http://www.w3.org/2000/svg"
   xmlns:sodipodi="http://sodipodi.sourceforge.net/DTD/sodipodi-0.dtd"
   xmlns:inkscape="http://www.inkscape.org/namespaces/inkscape"
   version="1.1"
   width="256"
   height="256"
   id="svg3988"
   inkscape:version="0.48.4 r9939"
   sodipodi:docname="qubes-logo-blue.svg">
  <sodipodi:namedview
     pagecolor="#ffffff"
     bordercolor="#666666"
     borderopacity="1"
     objecttolerance="10"
     gridtolerance="10"
     guidetolerance="10"
     inkscape:pageopacity="0"
     inkscape:pageshadow="2"
     inkscape:window-width="1920"
     inkscape:window-height="1031"
     id="namedview13"
     showgrid="false"
     inkscape:zoom="2.6074563"
     inkscape:cx="93.912247"
     inkscape:cy="119.52492"
     inkscape:window-x="0"
     inkscape:window-y="49"
     inkscape:window-maximized="0"
     inkscape:current-layer="svg3988" />
  <defs
     id="defs3990" />
  <metadata
     id="metadata3993">
    <rdf:RDF>
      <cc:Work
         rdf:about="">
        <dc:format>image/svg+xml</dc:format>
        <dc:type
           rdf:resource="http://purl.org/dc/dcmitype/StillImage" />
        <dc:title />
      </cc:Work>
    </rdf:RDF>
  </metadata>
  <rect
     style="fill:#63a0ff;fill-opacity:1;stroke:none"
     id="rect3944"
     transform="matrix(0.86430004,-0.50297658,0.86430004,0.50297658,0,0)"
     y="290.53906"
     x="-137.26288"
     ry="14.226912"
     height="74.58963"
     width="53.301201" />
  <path
     style="fill:#7eadff"
     id="path3946"
     inkscape:connector-curvature="0"
     d="m 127.95743,13.571685 a 23.297717,23.351298 0 0 0 -12.20092,3.132036 L 37.057212,62.229153 a 23.297717,23.351298 0 0 0 -11.655391,20.22024 l 0,91.098557 a 23.297717,23.351298 0 0 0 11.655391,20.19654 l 78.699298,45.56119 a 23.297717,23.351298 0 0 0 23.29883,0 l 78.71124,-45.56119 a 23.297717,23.351298 0 0 0 11.64346,-20.19654 l 0,-91.098557 A 23.297717,23.351298 0 0 0 217.76658,62.229153 L 139.05534,16.703721 a 23.297717,23.351298 0 0 0 -11.09791,-3.132036 z m -0.25271,51.49152 a 12.813743,12.843212 0 0 1 6.10788,1.71486 l 43.29326,25.043124 a 12.813743,12.843212 0 0 1 6.40515,11.122571 l 0,50.11011 a 12.813743,12.843212 0 0 1 -6.40515,11.09843 l -43.29326,25.06696 a 12.813743,12.843212 0 0 1 -12.80736,0 L 77.710466,164.1523 a 12.813743,12.843212 0 0 1 -6.403682,-11.09843 l 0,-50.11011 A 12.813743,12.843212 0 0 1 77.710466,91.821189 L 121.00524,66.778065 a 12.813743,12.843212 0 0 1 6.69948,-1.71486 z" />
  <path
     style="fill:#63a0ff;fill-opacity:1;stroke:none"
     id="path3948"
     inkscape:connector-curvature="0"
     d="m 226.284,70.811596 -44.50621,25.74576 a 12.813743,12.843212 0 0 1 1.72283,6.418574 l 0,50.09817 a 12.813743,12.843212 0 0 1 -6.40368,11.1105 l -43.28136,25.0552 a 12.813743,12.843212 0 0 1 -6.37991,1.70279 l 0,51.49153 a 23.297717,23.351298 0 0 0 11.61967,-3.108 l 78.71124,-45.56124 a 23.297717,23.351298 0 0 0 11.64346,-20.19655 l 0,-91.086626 A 23.297717,23.351298 0 0 0 226.284,70.811596 z" />
  <path
     style="fill:#99bfff;fill-opacity:1;stroke:none"
     id="path3950"
     inkscape:connector-curvature="0"
     d="M 28.548696,70.77256 73.047431,96.531736 A 12.813743,12.843212 0 0 1 77.731307,91.82698 L 121.01862,66.778048 a 12.813743,12.843212 0 0 1 12.80141,0.0036 l 43.29027,25.042236 a 12.813743,12.843212 0 0 1 4.66154,4.686576 L 226.2617,70.764856 a 23.297717,23.351298 0 0 0 -8.49512,-8.532108 l -78.72311,-45.54216 a 23.297717,23.351298 0 0 0 -23.27208,-0.0084 L 37.070587,62.225656 a 23.297717,23.351298 0 0 0 -8.521891,8.5473 z" />
</svg>
